<?xml version="1.0" standalone="no"?><!DOCTYPE svg PUBLIC "-//W3C//DTD SVG 1.1//EN" "http://www.w3.org/Graphics/SVG/1.1/DTD/svg11.dtd"><svg t="1513216217250" class="icon" style="" viewBox="0 0 1024 1024" version="1.1" xmlns="http://www.w3.org/2000/svg" p-id="2635" xmlns:xlink="http://www.w3.org/1999/xlink" width="200" height="200"><defs><style type="text/css"></style></defs><path d="M502.319 32.146c-267.446 0-484.908 217.605-484.908 484.908s217.605 484.908 484.908 484.908 484.908-217.605 484.908-484.908-217.605-484.908-484.908-484.908zM576.97 740.95c0 41.161-33.605 74.689-74.689 74.689s-74.689-33.605-74.689-74.689l0-223.856c0-41.161 33.605-74.689 74.689-74.689s74.689 33.605 74.689 74.689l0 223.856zM502.319 367.766c-41.161 0-74.689-33.605-74.689-74.689s33.605-74.689 74.689-74.689 74.689 33.605 74.689 74.689-33.605 74.689-74.689 74.689z" p-id="2636"></path></svg>